<svg xmlns="http://www.w3.org/2000/svg" xmlns:xlink="http://www.w3.org/1999/xlink" version="1.1" x="0px" y="0px" viewBox="0 0 100 100" enable-background="new 0 0 100 100" xml:space="preserve"><g><path d="M27.788,59.112c-0.296,0.371-0.76,0.656-1.252,0.958c-0.379,0.232-0.771,0.473-1.092,0.765   c-0.143,0.13-0.154,0.352-0.023,0.494c0.069,0.076,0.164,0.114,0.259,0.114c0.084,0,0.168-0.029,0.235-0.091   c0.272-0.247,0.62-0.46,0.987-0.686c0.521-0.32,1.061-0.651,1.433-1.117c0.121-0.151,0.096-0.372-0.055-0.492   C28.128,58.937,27.908,58.962,27.788,59.112z"/><path d="M32.604,53.029c-0.163-0.105-0.379-0.06-0.485,0.102s-0.061,0.378,0.101,0.484c0.236,0.154,0.638,0.475,0.672,0.877   c0.016,0.182,0.168,0.319,0.348,0.319c0.01,0,0.021,0,0.03-0.001c0.193-0.017,0.335-0.187,0.319-0.379   C33.546,53.915,33.196,53.417,32.604,53.029z"/><path d="M65.033,57.795c0.24,0.088,0.428,0.313,0.631,0.75c0.059,0.128,0.186,0.203,0.318,0.203c0.049,0,0.1-0.01,0.146-0.032   c0.176-0.081,0.252-0.289,0.17-0.464c-0.189-0.414-0.48-0.915-1.025-1.115c-0.178-0.062-0.383,0.028-0.449,0.209   C64.758,57.527,64.852,57.728,65.033,57.795z"/><path d="M73.361,59.088c0.031,0,0.063-0.005,0.094-0.014c0.078-0.021,0.377-0.055,0.449-0.056c0.186,0.048,0.377-0.07,0.422-0.258   s-0.07-0.377-0.258-0.422c-0.26-0.063-0.768,0.052-0.816,0.065c-0.182,0.057-0.283,0.248-0.23,0.433   C73.066,58.989,73.209,59.088,73.361,59.088z"/><path d="M93.818,61.883h-1.014c-0.012-0.003-0.021-0.011-0.033-0.013c-2.441-0.415-2.896-0.697-3.523-1.089l-0.289-0.178   c-1.102-0.654-2.203-1.353-3.314-2.059c-1.545-0.979-3.141-1.993-4.783-2.913c-1.402-0.783-2.824-1.763-4.008-2.76   c-0.164-0.138-0.313-0.277-0.457-0.412c-0.619-0.579-1.26-1.179-2.412-0.912c-0.672,0.155-1.523,0.681-2.029,1.056   c-0.348-0.241-0.707-0.467-1.092-0.637c-0.211-0.093-0.426-0.169-0.648-0.228c-0.932-0.241-1.449-0.407-1.879-0.704   c-0.322-0.221-0.625-0.539-1.012-1.065c-0.08-0.105-0.16-0.221-0.25-0.348c-0.209-0.302-0.453-0.584-0.744-0.863   c-0.301-0.284-0.643-0.559-1.08-0.866c-0.002-0.002-0.002-0.006-0.006-0.008c-0.002-0.002-0.008-0.001-0.01-0.003   c-0.131-0.09-0.26-0.177-0.389-0.264l-0.457-0.299c-0.303-0.197-0.605-0.394-0.898-0.602c-0.059-0.042-0.123-0.095-0.195-0.157   c-0.266-0.232-0.602-0.577-0.955-0.94l-0.176-0.181c-0.41-0.419-0.844-0.854-1.221-1.161c-0.373-0.302-0.645-0.44-0.883-0.448   c-0.01,0-0.02,0-0.029,0c-0.385,0-0.873,0.218-1.49,0.666c-0.008,0.005-0.016,0.011-0.023,0.017   c-0.588,0.431-1.141,0.956-1.48,1.295c-0.488-0.044-0.951-0.446-1.344-0.855c-0.113-0.118-0.225-0.238-0.334-0.355   c-0.26-0.283-0.508-0.55-0.775-0.76c-0.002-0.002-0.072-0.057-0.074-0.058c-0.354-0.272-0.719-0.514-1.082-0.756   c-0.172-0.114-0.342-0.227-0.512-0.344c-0.391-0.268-0.846-0.598-1.311-1.073c-0.701-0.697-1.401-0.943-2.058-1.135   c-0.007-0.002-0.014-0.004-0.021-0.005l-0.349-0.098c-0.33-0.091-0.68-0.187-1.06-0.327c-0.379-0.138-0.738-0.302-1.099-0.502   c-0.496-0.273-0.987-0.617-1.502-1.051c-0.315-0.265-0.649-0.572-1.048-0.967c-0.13-0.127-0.334-0.135-0.473-0.018   c-0.387,0.33-0.796,0.647-1.205,0.965l-0.445,0.347c-0.498,0.39-1.078,0.861-1.651,1.444l-0.072,0.074   c-0.378,0.384-0.774,0.774-1.171,1.166l-0.524,0.517c-0.434,0.43-0.967,0.835-1.63,1.24c-0.731,0.447-1.47,0.8-2.063,1.083   c-0.392,0.187-0.718,0.344-0.938,0.476l-0.183,0.114c-0.707,0.463-1.368,1.096-1.802,1.547c-0.094,0.1-0.182,0.196-0.27,0.292   c-0.098-0.072-0.195-0.147-0.293-0.215c-0.663-0.458-1.525-0.952-2.341-0.681c-0.523,0.174-1.151,0.544-1.974,1.167   c-0.414,0.312-0.827,0.649-1.215,0.965c-0.239,0.195-0.469,0.382-0.685,0.552c-0.095,0.076-0.188,0.147-0.276,0.214   c-0.599,0.451-1.185,0.883-1.775,1.308c-0.724,0.521-1.454,1.03-2.223,1.549l-0.306,0.204c-0.66,0.442-1.136,0.762-1.658,1.403   l-0.202,0.254c-0.345,0.437-0.617,0.78-1.024,1.102c-0.1,0.077-0.207,0.156-0.327,0.231c-0.394,0.252-0.795,0.504-1.201,0.759   l-0.907,0.571c-0.582,0.37-1.172,0.753-1.759,1.158c-0.2,0.139-0.416,0.275-0.647,0.413c-0.416,0.25-0.873,0.502-1.35,0.766   c-0.494,0.272-1.01,0.558-1.527,0.865c-0.928,0.552-1.654,1.057-2.286,1.589c-0.366,0.311-0.684,0.62-0.977,0.942H6.183   c-0.193,0-0.35,0.156-0.35,0.35s0.157,0.35,0.35,0.35h87.636c0.193,0,0.35-0.156,0.35-0.35S94.012,61.883,93.818,61.883z    M37.155,47.737c0.416-0.317,0.779-0.655,1.157-1.012c-0.018,0.168-0.039,0.338-0.059,0.51c-0.051,0.427-0.104,0.869-0.115,1.307   c-0.011,0.511,0.039,0.957,0.152,1.365c0.023,0.084,0.06,0.164,0.089,0.246c-0.085-0.047-0.17-0.093-0.261-0.151   c-0.162-0.105-0.319-0.216-0.476-0.327l-0.177-0.128c-0.389-0.282-0.792-0.573-1.24-0.809c-0.127-0.067-0.257-0.125-0.392-0.176   c-0.018-0.007-0.036-0.011-0.054-0.018C36.265,48.319,36.726,48.064,37.155,47.737z M8.517,61.475   c0.601-0.507,1.297-0.99,2.192-1.521c0.046-0.027,0.091-0.051,0.137-0.078c0.388-0.094,0.864-0.132,1.327-0.167   c0.421-0.032,0.856-0.065,1.245-0.143c0.781-0.157,1.614-0.318,2.453-0.404l0.153-0.016c0.861-0.086,1.542-0.153,2.375-0.654   c0.271-0.162,0.504-0.399,0.731-0.629c0.098-0.099,0.195-0.197,0.297-0.291c0.272-0.252,0.475-0.365,0.68-0.377   c0.085-0.012,0.201,0.01,0.378,0.182c0.164,0.159,0.32,0.397,0.471,0.628c0.122,0.186,0.241,0.366,0.366,0.518   c0.099,0.12,0.4,0.484,0.849,0.485c0.001,0,0.001,0,0.002,0c0.349,0,0.696-0.213,1.059-0.649c0.113-0.133,0.232-0.295,0.359-0.487   c0.186-0.28,0.348-0.582,0.527-0.975c0.08-0.172,0.154-0.346,0.229-0.519c0.12-0.276,0.238-0.552,0.378-0.823   c0.271-0.53,0.567-0.923,0.998-1.309c0.399-0.354,0.836-0.623,1.298-0.909c0.329-0.203,0.656-0.405,0.965-0.636   c0.575-0.429,0.984-0.875,1.286-1.4c0.029-0.049,0.059-0.102,0.083-0.149c0.206-0.383,0.39-0.844,0.563-1.407   c0.135-0.436,0.249-0.893,0.356-1.347l0.128-0.561c0.059-0.257,0.116-0.51,0.175-0.754c0.03-0.124,0.063-0.238,0.093-0.357   c0.205,0.102,0.424,0.227,0.678,0.403c0.232,0.161,0.465,0.336,0.693,0.508c0.281,0.212,0.556,0.419,0.82,0.593   c0.186,0.122,0.367,0.229,0.541,0.311c0.417,0.196,0.854,0.307,1.278,0.414c0.307,0.077,0.612,0.154,0.902,0.264   c0.108,0.042,0.213,0.088,0.316,0.142c0.405,0.213,0.77,0.477,1.155,0.756l0.181,0.131c0.166,0.118,0.33,0.232,0.5,0.345   c1.176,0.765,2.031,0.625,2.937,0.479c0.522-0.085,1.061-0.174,1.749-0.094c0.559,0.066,1.311,0.383,2.236,0.939   c0.569,0.342,1.133,0.731,1.609,1.067l0.529,0.377c0.241,0.173,0.459,0.329,0.65,0.46c0.16,0.108,0.376,0.067,0.486-0.091   c0.109-0.16,0.069-0.378-0.091-0.487c-0.187-0.128-0.401-0.281-0.638-0.451l-0.533-0.38c-0.486-0.343-1.063-0.741-1.651-1.095   c-0.936-0.563-1.696-0.883-2.347-0.998c-0.182-0.337-0.337-0.679-0.457-1.018c-0.134-0.385-0.227-0.779-0.274-1.172   c-0.049-0.399-0.049-0.801,0-1.195c0.05-0.414,0.154-0.831,0.31-1.238c0.167-0.433,0.397-0.866,0.693-1.299   c0.33-0.485,0.531-0.956,0.631-1.481c0.075-0.391,0.091-0.782,0.108-1.195l0.006-0.149c0.011-0.235,0.023-0.484,0.05-0.757   c0.017-0.179,0.034-0.349,0.054-0.51c0.063-0.526,0.138-0.899,0.248-1.25c0.075-0.24,0.175-0.467,0.289-0.695   c0.263,0.25,0.506,0.471,0.736,0.664c0.55,0.464,1.078,0.833,1.614,1.128c0.392,0.217,0.784,0.396,1.197,0.547   c0.4,0.146,0.768,0.249,1.115,0.344l0.358,0.1c0.006,0.002,0.012,0.003,0.018,0.005c0.588,0.173,1.166,0.379,1.783,0.996   c0.463,0.471,0.951,0.827,1.369,1.113c0.172,0.119,0.348,0.234,0.521,0.35c0.35,0.233,1.123,0.791,1.123,0.791   c0.211,0.166,0.439,0.413,0.682,0.675c0.111,0.122,0.227,0.246,0.344,0.367c0.367,0.382,0.797,0.76,1.293,0.952   c-0.088,0.096-0.164,0.185-0.225,0.257l-0.205,0.246c-0.164,0.193-0.332,0.395-0.49,0.603c-0.301,0.4-0.49,0.734-0.59,1.051   c-0.049,0.15-0.082,0.307-0.105,0.468c-0.035,0.246-0.045,0.5-0.057,0.753c-0.006,0.186-0.014,0.37-0.031,0.549   c-0.023,0.209-0.057,0.372-0.105,0.514c-0.086,0.247-0.188,0.48-0.305,0.693c-0.262,0.483-0.609,0.899-1.092,1.309   c-0.008,0.005-0.016,0.011-0.021,0.017c-0.422,0.353-0.904,0.668-1.322,0.931l-0.959,0.606c-0.851,0.537-1.704,1.074-2.559,1.59   l-0.428,0.257c-0.292,0.174-0.644,0.359-1.019,0.557c-0.486,0.256-1.009,0.532-1.493,0.829c-0.82,0.504-1.343,0.954-1.647,1.417   c-0.012,0.019-0.003,0.041-0.012,0.062c-0.022,0.05-0.035,0.104-0.031,0.162c0.006,0.065,0.039,0.115,0.08,0.168   c0.018,0.025,0.026,0.054,0.049,0.072c0.007,0.006,0.006,0.017,0.014,0.021c0.055,0.035,0.117,0.05,0.178,0.053   c0.009,0.001,0.016,0.01,0.025,0.01c0.012,0,0.024,0,0.037-0.002c0.335-0.034,0.686-0.064,1.045-0.095   c1.382-0.117,2.948-0.25,4.192-0.741c0.55-0.217,1.063-0.46,1.57-0.7c0.441-0.21,0.881-0.417,1.336-0.603   c0.5-0.204,0.963-0.354,1.418-0.461c1.1-0.257,1.957-0.707,2.621-1.377c0.355-0.358,0.66-0.78,0.965-1.356l0.066-0.121   c0.275-0.5,0.584-0.951,0.914-1.341c0.482-0.566,0.934-0.919,1.262-1.13c-0.031,0.215-0.078,0.421-0.123,0.608l-0.115,0.451   c-0.076,0.292-0.152,0.586-0.211,0.883c-0.068,0.344-0.104,0.656-0.109,0.958v0.406c0.004,0.512,0.031,0.942,0.082,1.318   c0.092,0.656,0.256,1.116,0.5,1.402c0.049,0.058,0.1,0.107,0.152,0.147c0.141,0.106,0.338,0.094,0.459-0.031l0.123-0.128   c0.279-0.3,0.537-0.607,0.791-0.911c0.148-0.179,0.297-0.355,0.445-0.527c0.455-0.521,0.971-1.052,1.676-1.418   c0.178-0.093,0.369-0.177,0.574-0.247c0.166-0.057,0.266-0.229,0.229-0.402c-0.063-0.306-0.113-0.653-0.148-1.03   c-0.037-0.411-0.049-0.826-0.035-1.232c0.014-0.443,0.061-0.861,0.135-1.239c0.098-0.479,0.24-0.896,0.422-1.244   c0.178-0.337,0.404-0.592,0.656-0.795c0.303,0.222,0.566,0.433,0.787,0.642c0.256,0.245,0.471,0.492,0.658,0.763   c0.09,0.127,0.174,0.247,0.254,0.356c0.436,0.592,0.789,0.959,1.18,1.227c0.516,0.355,1.088,0.543,2.098,0.805   c0.188,0.049,0.367,0.113,0.545,0.19c0.568,0.251,1.111,0.645,1.611,1.031l0.371,0.293c0.355,0.282,0.715,0.566,1.082,0.822   c0.326,0.227,0.604,0.396,0.879,0.537c0.17,0.089,0.383,0.021,0.471-0.152c0.088-0.172,0.02-0.383-0.152-0.471   c-0.246-0.125-0.498-0.28-0.797-0.488c-0.355-0.248-0.703-0.523-1.049-0.797l-0.377-0.297c-0.021-0.018-0.047-0.033-0.068-0.051   c0.504-0.349,1.154-0.705,1.59-0.806c0.785-0.181,1.182,0.186,1.777,0.742c0.152,0.143,0.311,0.29,0.482,0.436   c1.217,1.024,2.678,2.031,4.117,2.836c1.625,0.91,3.213,1.918,4.75,2.893c1.117,0.71,2.225,1.412,3.332,2.069l0.275,0.17   c0.297,0.185,0.568,0.348,0.971,0.508h-7.855c-0.014-0.004-0.023-0.012-0.037-0.014c-1.025-0.153-1.906-0.896-2.84-1.684   c-1.143-0.964-2.316-1.964-3.84-1.824c-0.191,0.018-0.334,0.188-0.316,0.38c0.018,0.191,0.17,0.337,0.379,0.317   c1.236-0.118,2.246,0.751,3.326,1.662c0.486,0.41,0.98,0.826,1.508,1.162h-8.57c-0.506-0.474-1.266-0.768-1.951-1.022   c-0.424-0.158-0.861-0.321-1.025-0.469c-0.098-0.087-0.182-0.184-0.268-0.278c-0.287-0.32-0.643-0.718-1.328-0.718   c-0.197,0-0.363,0.154-0.361,0.353c0.002,0.192,0.158,0.347,0.35,0.347c0.004,0,0.008,0,0.014,0c0.354,0,0.52,0.168,0.805,0.485   c0.102,0.114,0.205,0.229,0.32,0.333c0.264,0.235,0.721,0.405,1.25,0.604c0.301,0.111,0.615,0.231,0.908,0.366H42.189   c-2.06-0.509-3.322-1.845-4.077-2.646l-0.242-0.254c-0.084-0.088-0.154-0.217-0.228-0.354c-0.11-0.206-0.236-0.439-0.458-0.611   c-0.361-0.278-0.652-0.282-0.886-0.286c-0.147-0.003-0.275-0.005-0.449-0.071c-0.433-0.165-1.151-1.049-1.351-1.563   c-0.07-0.18-0.274-0.271-0.453-0.199c-0.18,0.069-0.27,0.272-0.2,0.453c0.235,0.605,1.054,1.697,1.753,1.964   c0.289,0.11,0.51,0.114,0.688,0.117c0.194,0.003,0.292,0.004,0.468,0.14c0.104,0.08,0.184,0.23,0.269,0.389   c0.089,0.166,0.189,0.353,0.342,0.511l0.234,0.246c0.572,0.607,1.424,1.498,2.67,2.167H8.066   C8.21,61.745,8.359,61.608,8.517,61.475z" fill="#A4031F"/></g></svg>